<?xml version="1.0" encoding="UTF-8"?>
<!DOCTYPE svg PUBLIC "-//W3C//DTD SVG 1.1//EN" "http://www.w3.org/Graphics/SVG/1.1/DTD/svg11.dtd">
<!-- Creator: CorelDRAW -->
<svg xmlns="http://www.w3.org/2000/svg" xml:space="preserve" width="233.975mm" height="67.9314mm" version="1.1" style="shape-rendering:geometricPrecision; text-rendering:geometricPrecision; image-rendering:optimizeQuality; fill-rule:evenodd; clip-rule:evenodd"
viewBox="0 0 24576.17 7135.34"
 xmlns:xlink="http://www.w3.org/1999/xlink"
 xmlns:xodm="http://www.corel.com/coreldraw/odm/2003">
 <defs>
  <style type="text/css">
   <![CDATA[
    .fil0 {fill:#5A9BED;fill-rule:nonzero}
   ]]>
  </style>
 </defs>
 <g id="Calque_x0020_1">
  <metadata id="CorelCorpID_0Corel-Layer"/>
  <g id="_2013978409840">
   <path class="fil0" d="M20574.2 7135.33c222.25,0 360.6,-101.56 360.6,-279.65 0,-363.55 -615.24,-226.67 -615.24,-510.73 0,-123.63 111.86,-181.04 257.57,-181.04 142.77,0 278.18,57.4 278.18,57.4l33.85 -76.53c-54.46,-25.02 -179.56,-66.24 -316.45,-66.24 -219.32,0 -347.36,104.5 -347.36,273.77 0,370.9 615.24,228.13 615.24,509.25 0,120.7 -97.15,186.94 -264.94,186.94 -157.49,0 -291.43,-58.87 -323.81,-75.07l-36.79 78.01c39.74,20.6 183.98,83.9 359.13,83.9l0 -0.01zm863.98 -1056.79l-395.93 1043.55 98.62 0 108.91 -288.49 475.41 0 108.91 288.49 98.62 0 -395.93 -1043.55 -98.62 0zm48.57 104.5l1.47 0 211.97 575.48 -425.37 0 211.94 -575.48 -0.01 0zm627.01 -91.26l0 1030.29 680 0 0 -86.84 -588.75 0 0 -943.46 -91.25 0 -0.01 0.01zm869.87 0l0 1030.29 722.68 0 0 -86.84 -631.41 0 0 -372.38 522.51 0 0 -83.9 -522.51 0 0 -400.34 609.34 0 0 -86.84 -700.6 0 -0.01 0.02zm1231.94 1043.55c222.25,0 360.6,-101.56 360.6,-279.65 0,-363.55 -615.24,-226.67 -615.24,-510.73 0,-123.63 111.86,-181.04 257.57,-181.04 142.78,0 278.18,57.4 278.18,57.4l33.85 -76.53c-54.46,-25.02 -179.56,-66.24 -316.45,-66.24 -219.32,0 -347.36,104.5 -347.36,273.77 0,370.9 615.24,228.13 615.24,509.25 0,120.7 -97.14,186.94 -264.94,186.94 -157.48,0 -291.43,-58.87 -323.81,-75.07l-36.79 78.01c39.75,20.6 183.98,83.9 359.13,83.9l0 -0.01z"/>
   <g>
    <path class="fil0" d="M2930.7 488.83c-1346.76,0 -2442.47,1097.01 -2442.47,2445.4 0,1348.39 1095.71,2445.44 2442.47,2445.44 1346.8,0 2442.49,-1097.05 2442.49,-2445.44 0,-1348.39 -1095.68,-2445.4 -2442.49,-2445.4zm0 5379.63c-1616,0 -2930.7,-1316.27 -2930.7,-2934.23 0,-1617.92 1314.71,-2934.23 2930.7,-2934.23 1616,0 2930.71,1316.3 2930.71,2934.23 0,1617.97 -1314.71,2934.23 -2930.71,2934.23z"/>
    <g>
     <path class="fil0" d="M9700.98 4884.44c11.72,13.67 17.52,28.35 17.52,43.95 0,21.52 -8.3,40.05 -24.86,55.69 -16.61,15.64 -35.61,23.47 -57.07,23.47l-2.93 0c-31.24,0 -60.51,-17.6 -87.82,-52.75l-1911.37 -2274.14 -971.8 1034.49 0 1198.61c0,62.54 -25.39,93.79 -76.08,93.79l-2.92 0c-52.71,0 -79.04,-31.24 -79.04,-93.79l0 -3991.48c0,-62.51 26.34,-93.79 79.04,-93.79l2.92 0c50.69,0 76.08,31.28 76.08,93.79l0 2576.02 2438.25 -2617.05c35.14,-37.09 64.41,-55.69 87.82,-55.69l5.85 0c21.46,0 39.99,8.34 55.63,24.95 15.6,16.6 23.41,35.65 23.41,57.14 0,21.52 -6.86,39.09 -20.48,52.73l-1507.42 1600.1 1955.27 2323.96 0 -0.01z"/>
     <path class="fil0" d="M10558.54 825.56l2716.35 0c62.4,0 93.62,26.39 93.62,79.11l0 2.93c0,27.38 -8.34,47.91 -24.86,61.55 -16.63,13.71 -39.53,20.52 -68.77,20.52l-2637.31 0 0 1770.07 2160.16 0c29.31,0 53.2,6.34 71.73,19.05 18.53,12.71 27.83,32.72 27.83,60.06l0 2.93c0,27.38 -9.31,47.39 -27.83,60.1 -18.53,12.71 -42.42,19.04 -71.73,19.04l-2160.16 0 0 1922.45 2695.86 0c62.43,0 93.62,26.39 93.62,79.15l0 2.93c0,27.38 -8.3,47.88 -24.86,61.51 -16.63,13.71 -39.53,20.52 -68.77,20.52l-2774.9 0c-52.69,0 -79.04,-27.34 -79.04,-82.03l0 -4020.79c0,-52.73 26.34,-79.11 79.04,-79.11l0.02 0z"/>
     <path class="fil0" d="M13857.29 825.56l2997.33 0c50.72,0 76.11,26.39 76.11,79.11l0 2.93c0,54.72 -25.39,82.08 -76.11,82.08l-1413.79 0 0 3935.79c0,54.69 -25.38,82.03 -76.11,82.03l-2.93 0c-54.65,0 -81.96,-27.34 -81.96,-82.03l0 -3935.79 -1422.54 0c-54.65,0 -81.97,-27.35 -81.97,-82.08l0 -2.93c0,-52.73 27.32,-79.11 81.97,-79.11l0.01 0z"/>
     <path class="fil0" d="M20393.45 4406.76c19.49,0 36.1,6.86 49.77,20.52l5.82 5.85c11.74,11.72 17.6,27.35 17.6,46.88 0,31.27 -12.71,56.7 -38.06,76.19 -185.42,158.26 -390.32,280.87 -614.71,367.81 -224.4,86.89 -461.49,130.39 -711.26,130.39 -390.32,0 -750.32,-95.24 -1080.08,-285.73 -329.79,-190.5 -591.77,-449.32 -785.9,-776.59 -194.24,-327.23 -291.25,-685.25 -291.25,-1074.06 0,-390.71 96.56,-749.22 289.77,-1075.52 193.16,-326.27 455.15,-584.65 785.9,-775.15 330.78,-190.51 691.25,-285.73 1081.56,-285.73 249.78,0 486.38,42.49 709.82,127.51 223.44,84.98 429.76,205.62 619.07,361.92 31.18,29.31 46.84,55.69 46.84,79.11 0,5.85 -1.44,11.74 -4.4,17.59 -2.93,5.86 -4.38,9.79 -4.38,11.72l-5.85 11.72 -2.93 2.93c-17.56,17.59 -39.09,26.42 -64.4,26.42 -21.49,0 -42.95,-7.81 -64.4,-23.5 -384.45,-296.92 -794.24,-445.43 -1229.37,-445.43 -361.03,0 -694.22,86.97 -999.6,260.84 -305.44,173.94 -546.89,411.32 -724.41,712.12 -177.64,300.93 -266.39,632.08 -266.39,993.48 0,361.48 89.3,692.14 267.84,992.05 178.55,299.88 420.01,537.26 724.45,712.12 304.41,174.86 637.08,262.27 998.12,262.27 435.13,0 843.96,-150.4 1226.44,-451.29 21.45,-17.59 42.92,-26.37 64.4,-26.37l-0.01 -0.06z"/>
     <path class="fil0" d="M21394.41 3005.93l0 1907.81c0,62.54 -25.39,93.79 -76.11,93.79l-2.93 0c-52.66,0 -79.04,-31.24 -79.04,-93.79l0 -3994.42c0,-62.47 26.39,-93.74 79.04,-93.74l2.93 0c50.72,0 76.11,31.28 76.11,93.74l0 1928.34 3023.67 0 0 -1928.34c0,-62.47 26.35,-93.74 79.04,-93.74l2.93 0c50.72,0 76.11,31.28 76.11,93.74l0 3994.42c0,62.54 -25.39,93.79 -76.11,93.79l-2.93 0c-52.69,0 -79.04,-31.24 -79.04,-93.79l0 -1907.81 -3023.67 0z"/>
     <path class="fil0" d="M3871.61 1999.06c-23.61,0 -45.43,-5.89 -65.36,-17.7 -20.01,-11.82 -42.66,-27.68 -68.07,-47.73l-5.44 -2.74c-34.5,-34.48 -78.97,-72.66 -133.44,-114.51 -54.47,-41.79 -115.31,-80.85 -182.46,-117.24 -67.18,-36.34 -139.36,-67.21 -216.51,-92.69 -77.18,-25.45 -155.7,-38.2 -235.57,-38.2 -101.68,0 -191.57,11.38 -269.6,34.1 -78.07,22.74 -143.44,53.64 -196.05,92.71 -52.71,39.09 -92.6,85.01 -119.85,137.66 -27.24,52.77 -40.83,109.09 -40.83,169.08 0,65.44 20.42,122.65 61.26,171.76 40.87,49.05 96.22,92.71 166.15,130.87 69.85,38.16 150.18,73.18 240.97,104.97 90.77,31.82 186.08,63.18 285.95,94.05 114.4,34.54 227.82,71.81 340.44,111.8 112.54,40.02 220.11,84.98 322.68,134.95 102.57,50.02 198.35,105.46 287.32,166.34 88.95,60.92 165.62,130.85 230.12,209.95 64.45,79.04 115.27,167.24 152.48,264.46 37.19,97.23 55.84,206.77 55.84,328.53 0,198.14 -39.96,377.19 -119.8,537.15 -79.93,159.93 -190.2,296.74 -330.9,410.31 -140.7,113.61 -305.93,200.87 -495.61,261.75 -189.76,60.89 -393.52,91.34 -611.36,91.34 -139.85,0 -278.73,-16.33 -416.65,-49.05 -138,-32.72 -270.53,-79.08 -397.63,-139.07 -127.1,-59.99 -247.38,-132.25 -360.8,-216.78 -113.5,-84.51 -214.7,-179.45 -303.63,-284.9l0 2.74 -5.44 -10.92c-39.99,-45.4 -59.92,-87.23 -59.92,-125.39 0,-20.01 5.45,-39.06 16.33,-57.29 10.89,-18.13 27.2,-38.16 49.03,-59.99l89.86 -89.93c27.2,-23.64 56.25,-49.99 87.12,-79.07 30.88,-29.05 61.73,-55.42 92.6,-79.07 30.86,-23.6 59.43,-43.61 85.78,-59.99 26.31,-16.33 47.69,-24.52 63.99,-24.52 25.41,0 49.03,8.19 70.82,24.52 21.78,16.39 39.9,31.84 54.46,46.36l10.9 10.89 -2.74 0c63.55,59.99 134.81,117.24 213.8,171.79 78.97,54.55 160.18,103.19 243.71,145.89 83.47,42.73 166.52,76.34 249.19,100.87 82.56,24.52 160.19,36.79 232.82,36.79 99.83,0 193.35,-12.66 280.51,-38.16 87.11,-25.41 162.44,-61.32 226,-107.67 63.55,-46.36 113.46,-102.27 149.8,-167.71 36.28,-65.44 54.44,-138.1 54.44,-218.1 0,-79.97 -23.6,-148.6 -70.77,-205.85 -47.24,-57.26 -108.94,-107.24 -185.21,-149.96 -76.23,-42.69 -162.02,-79.48 -257.35,-110.43 -95.3,-30.9 -191.08,-59.99 -287.28,-87.27 -221.52,-67.21 -415.32,-139.94 -581.43,-218.1 -166.12,-78.14 -304.56,-165.88 -415.29,-263.13 -110.75,-97.2 -193.83,-206.28 -249.19,-327.16 -55.4,-120.88 -83.04,-256.71 -83.04,-407.64 0,-169.05 34.05,-323.08 102.13,-462.11 68.05,-139.07 164.75,-258.09 289.99,-357.22 125.29,-99.01 275.94,-176.26 452.07,-231.73 176.08,-55.44 373.11,-83.16 590.95,-83.16 165.19,0 333.13,25.9 503.8,77.71 170.63,51.8 328.56,123.16 473.81,214.02 43.61,27.28 88.07,58.22 133.47,92.72 45.36,34.54 87.15,69.51 125.25,104.94 38.14,35.46 69.45,70 93.99,103.64 24.49,33.64 36.75,62.29 36.75,85.85 0,21.83 -5.44,44.11 -16.33,66.8 -10.89,22.74 -24.49,43.2 -40.83,61.35l-81.7 87.23 0 -2.71c-27.24,29.08 -55.4,59.06 -84.41,89.98 -29.08,30.92 -58.14,58.62 -87.15,83.15 -29.05,24.57 -55.4,45 -79,61.35 -23.57,16.33 -43.55,24.52 -59.88,24.52l-0.03 0.02z"/>
    </g>
   </g>
  </g>
 </g>
</svg>
