<?xml version="1.0" encoding="UTF-8"?>
<!DOCTYPE svg PUBLIC "-//W3C//DTD SVG 1.1//EN" "http://www.w3.org/Graphics/SVG/1.1/DTD/svg11.dtd">
<!-- Creator: CorelDRAW -->
<svg xmlns="http://www.w3.org/2000/svg" xml:space="preserve" width="2.19697in" height="2.19961in" version="1.1" style="shape-rendering:geometricPrecision; text-rendering:geometricPrecision; image-rendering:optimizeQuality; fill-rule:evenodd; clip-rule:evenodd"
viewBox="0 0 150.32 150.5"
 xmlns:xlink="http://www.w3.org/1999/xlink"
 xmlns:xodm="http://www.corel.com/coreldraw/odm/2003">
 <defs>
  <style type="text/css">
   <![CDATA[
    .fil1 {fill:#FEFEFE}
    .fil0 {fill:teal;fill-rule:nonzero}
   ]]>
  </style>
 </defs>
 <g id="Calque_x0020_1">
  <metadata id="CorelCorpID_0Corel-Layer"/>
  <path class="fil0" d="M75.16 12.54c-34.54,0 -62.64,28.13 -62.64,62.71 0,34.58 28.1,62.71 62.64,62.71 34.54,0 62.64,-28.13 62.64,-62.71 0,-34.58 -28.1,-62.71 -62.64,-62.71zm0 137.96c-41.44,0 -75.16,-33.76 -75.16,-75.25 0,-41.49 33.72,-75.25 75.16,-75.25 41.44,0 75.16,33.76 75.16,75.25 0,41.49 -33.72,75.25 -75.16,75.25z"/>
  <path class="fil0" d="M99.29 51.27c-0.61,0 -1.17,-0.15 -1.68,-0.45 -0.51,-0.3 -1.09,-0.71 -1.75,-1.22l-0.14 -0.07c-0.88,-0.88 -2.03,-1.86 -3.42,-2.94 -1.4,-1.07 -2.96,-2.07 -4.68,-3.01 -1.72,-0.93 -3.57,-1.72 -5.55,-2.38 -1.98,-0.65 -3.99,-0.98 -6.04,-0.98 -2.61,0 -4.91,0.29 -6.91,0.87 -2,0.58 -3.68,1.38 -5.03,2.38 -1.35,1 -2.37,2.18 -3.07,3.53 -0.7,1.35 -1.05,2.8 -1.05,4.34 0,1.68 0.52,3.15 1.57,4.4 1.05,1.26 2.47,2.38 4.26,3.36 1.79,0.98 3.85,1.88 6.18,2.69 2.33,0.82 4.77,1.62 7.33,2.41 2.93,0.89 5.84,1.84 8.73,2.87 2.89,1.03 5.64,2.18 8.28,3.46 2.63,1.28 5.09,2.7 7.37,4.27 2.28,1.56 4.25,3.36 5.9,5.38 1.65,2.03 2.96,4.29 3.91,6.78 0.95,2.49 1.43,5.3 1.43,8.43 0,5.08 -1.02,9.67 -3.07,13.78 -2.05,4.1 -4.88,7.61 -8.49,10.52 -3.61,2.91 -7.85,5.15 -12.71,6.71 -4.87,1.56 -10.09,2.34 -15.68,2.34 -3.59,0 -7.15,-0.42 -10.69,-1.26 -3.54,-0.84 -6.94,-2.03 -10.2,-3.57 -3.26,-1.54 -6.34,-3.39 -9.25,-5.56 -2.91,-2.17 -5.51,-4.6 -7.79,-7.31l0 0.07 -0.14 -0.28c-1.03,-1.16 -1.54,-2.24 -1.54,-3.22 0,-0.51 0.14,-1 0.42,-1.47 0.28,-0.46 0.7,-0.98 1.26,-1.54l2.3 -2.31c0.7,-0.61 1.44,-1.28 2.23,-2.03 0.79,-0.75 1.58,-1.42 2.37,-2.03 0.79,-0.61 1.52,-1.12 2.2,-1.54 0.67,-0.42 1.22,-0.63 1.64,-0.63 0.65,0 1.26,0.21 1.82,0.63 0.56,0.42 1.02,0.82 1.4,1.19l0.28 0.28 -0.07 0c1.63,1.54 3.46,3.01 5.48,4.41 2.03,1.4 4.11,2.65 6.25,3.74 2.14,1.1 4.27,1.96 6.39,2.59 2.12,0.63 4.11,0.94 5.97,0.94 2.56,0 4.96,-0.32 7.19,-0.98 2.23,-0.65 4.17,-1.57 5.8,-2.76 1.63,-1.19 2.91,-2.62 3.84,-4.3 0.93,-1.68 1.4,-3.54 1.4,-5.59 0,-2.05 -0.61,-3.81 -1.82,-5.28 -1.21,-1.47 -2.79,-2.75 -4.75,-3.85 -1.95,-1.09 -4.15,-2.04 -6.6,-2.83 -2.44,-0.79 -4.9,-1.54 -7.37,-2.24 -5.68,-1.72 -10.65,-3.59 -14.91,-5.59 -4.26,-2 -7.81,-4.25 -10.65,-6.75 -2.84,-2.49 -4.97,-5.29 -6.39,-8.39 -1.42,-3.1 -2.13,-6.58 -2.13,-10.45 0,-4.34 0.87,-8.29 2.62,-11.85 1.75,-3.57 4.22,-6.62 7.44,-9.16 3.21,-2.54 7.08,-4.52 11.59,-5.94 4.52,-1.42 9.57,-2.13 15.16,-2.13 4.24,0 8.54,0.66 12.92,1.99 4.38,1.33 8.43,3.16 12.15,5.49 1.12,0.7 2.26,1.49 3.42,2.38 1.16,0.89 2.23,1.78 3.21,2.69 0.98,0.91 1.78,1.8 2.41,2.66 0.63,0.86 0.94,1.6 0.94,2.2 0,0.56 -0.14,1.13 -0.42,1.71 -0.28,0.58 -0.63,1.11 -1.05,1.57l-2.1 2.24 0 -0.07c-0.7,0.75 -1.42,1.51 -2.16,2.31 -0.75,0.79 -1.49,1.5 -2.23,2.13 -0.75,0.63 -1.42,1.15 -2.03,1.57 -0.6,0.42 -1.12,0.63 -1.54,0.63z"/>
  <path class="fil1" d="M99.29 51.27c-0.61,0 -1.17,-0.15 -1.68,-0.45 -0.51,-0.3 -1.09,-0.71 -1.75,-1.22l-0.14 -0.07c-0.88,-0.88 -2.03,-1.86 -3.42,-2.94 -1.4,-1.07 -2.96,-2.07 -4.68,-3.01 -1.72,-0.93 -3.57,-1.72 -5.55,-2.38 -1.98,-0.65 -3.99,-0.98 -6.04,-0.98 -2.61,0 -4.91,0.29 -6.91,0.87 -2,0.58 -3.68,1.38 -5.03,2.38 -1.35,1 -2.37,2.18 -3.07,3.53 -0.7,1.35 -1.05,2.8 -1.05,4.34 0,1.68 0.52,3.15 1.57,4.4 1.05,1.26 2.47,2.38 4.26,3.36 1.79,0.98 3.85,1.88 6.18,2.69 2.33,0.82 4.77,1.62 7.33,2.41 2.93,0.89 5.84,1.84 8.73,2.87 2.89,1.03 5.64,2.18 8.28,3.46 2.63,1.28 5.09,2.7 7.37,4.27 2.28,1.56 4.25,3.36 5.9,5.38 1.65,2.03 2.96,4.29 3.91,6.78 0.95,2.49 1.43,5.3 1.43,8.43 0,5.08 -1.02,9.67 -3.07,13.78 -2.05,4.1 -4.88,7.61 -8.49,10.52 -3.61,2.91 -7.85,5.15 -12.71,6.71 -4.87,1.56 -10.09,2.34 -15.68,2.34 -3.59,0 -7.15,-0.42 -10.69,-1.26 -3.54,-0.84 -6.94,-2.03 -10.2,-3.57 -3.26,-1.54 -6.34,-3.39 -9.25,-5.56 -2.91,-2.17 -5.51,-4.6 -7.79,-7.31l0 0.07 -0.14 -0.28c-1.03,-1.16 -1.54,-2.24 -1.54,-3.22 0,-0.51 0.14,-1 0.42,-1.47 0.28,-0.46 0.7,-0.98 1.26,-1.54l2.3 -2.31c0.7,-0.61 1.44,-1.28 2.23,-2.03 0.79,-0.75 1.58,-1.42 2.37,-2.03 0.79,-0.61 1.52,-1.12 2.2,-1.54 0.67,-0.42 1.22,-0.63 1.64,-0.63 0.65,0 1.26,0.21 1.82,0.63 0.56,0.42 1.02,0.82 1.4,1.19l0.28 0.28 -0.07 0c1.63,1.54 3.46,3.01 5.48,4.41 2.03,1.4 4.11,2.65 6.25,3.74 2.14,1.1 4.27,1.96 6.39,2.59 2.12,0.63 4.11,0.94 5.97,0.94 2.56,0 4.96,-0.32 7.19,-0.98 2.23,-0.65 4.17,-1.57 5.8,-2.76 1.63,-1.19 2.91,-2.62 3.84,-4.3 0.93,-1.68 1.4,-3.54 1.4,-5.59 0,-2.05 -0.61,-3.81 -1.82,-5.28 -1.21,-1.47 -2.79,-2.75 -4.75,-3.85 -1.95,-1.09 -4.15,-2.04 -6.6,-2.83 -2.44,-0.79 -4.9,-1.54 -7.37,-2.24 -5.68,-1.72 -10.65,-3.59 -14.91,-5.59 -4.26,-2 -7.81,-4.25 -10.65,-6.75 -2.84,-2.49 -4.97,-5.29 -6.39,-8.39 -1.42,-3.1 -2.13,-6.58 -2.13,-10.45 0,-4.34 0.87,-8.29 2.62,-11.85 1.75,-3.57 4.22,-6.62 7.44,-9.16 3.21,-2.54 7.08,-4.52 11.59,-5.94 4.52,-1.42 9.57,-2.13 15.16,-2.13 4.24,0 8.54,0.66 12.92,1.99 4.38,1.33 8.43,3.16 12.15,5.49 1.12,0.7 2.26,1.49 3.42,2.38 1.16,0.89 2.23,1.78 3.21,2.69 0.98,0.91 1.78,1.8 2.41,2.66 0.63,0.86 0.94,1.6 0.94,2.2 0,0.56 -0.14,1.13 -0.42,1.71 -0.28,0.58 -0.63,1.11 -1.05,1.57l-2.1 2.24 0 -0.07c-0.7,0.75 -1.42,1.51 -2.16,2.31 -0.75,0.79 -1.49,1.5 -2.23,2.13 -0.75,0.63 -1.42,1.15 -2.03,1.57 -0.6,0.42 -1.12,0.63 -1.54,0.63zm-24.13 -38.73c-34.54,0 -62.64,28.13 -62.64,62.71 0,34.58 28.1,62.71 62.64,62.71 34.54,0 62.64,-28.13 62.64,-62.71 0,-34.58 -28.1,-62.71 -62.64,-62.71z"/>
 </g>
</svg>
